<svg id="a" xmlns="http://www.w3.org/2000/svg" viewBox="0 0 85 85" fill="currentColor"><path d="M63.9,12.8c-.6,0-1.2,.5-1.2,1.2v4.4l-1-.7c-2.6-2-5.5-3.6-8.6-4.6-3.1-1.1-6.4-1.6-9.7-1.6-7.8,0-15.3,3.1-21,8.8-5.7,5.7-8.8,13.3-8.8,21.3s3.1,15.6,8.8,21.3c.2,.2,.5,.3,.8,.3s.6-.1,.8-.3c.5-.5,.5-1.2,0-1.7-5.3-5.3-8.1-12.2-8.1-19.7,0-15.3,12.5-27.8,27.8-27.8,5.8,0,11.3,1.7,16,5l1.5,1.1h-4.1c-.6,0-1.2,.5-1.2,1.2s.5,1.2,1.2,1.2h7.7l.3-.3v-7.9c0-.6-.5-1.2-1.2-1.2Z"/><path d="M52,68.3h-.4c-.4,.1-.9,.3-1.4,.4-.3,.1-.6,.3-.7,.5-.2,.3-.2,.6-.1,.9,.1,.5,.6,.9,1.1,.9h.3c.5-.1,1-.3,1.5-.4,.6-.2,1-.8,.8-1.5-.1-.5-.6-.8-1.1-.8Z"/><path d="M58.8,65.2c-.2,0-.4,0-.6,.2-.4,.2-.8,.5-1.2,.7-.6,.3-.8,1-.5,1.6,.2,.4,.6,.6,1,.6,.2,0,.4,0,.6-.1,.4-.2,.9-.5,1.3-.8,.3-.2,.5-.4,.5-.7,.1-.3,0-.6-.1-.9-.2-.4-.6-.6-1-.6Z"/><path d="M72.5,33.2c-.1-.5-.6-.8-1.1-.8,0-.2-.1-.2-.3-.1-.3,.1-.5,.3-.7,.6-.1,.3-.2,.6-.1,.9,.1,.4,.3,.9,.4,1.4s.6,.9,1.1,.9h.3c.3-.1,.6-.3,.7-.5,.2-.3,.2-.6,.1-.9-.1-.5-.3-1-.4-1.5Z"/><path d="M44.4,69.4h-1.4c-.6,0-1.2,.5-1.2,1.1,0,.3,.1,.6,.3,.8,.2,.2,.5,.4,.8,.4h1.6c.3,0,.6-.1,.8-.4,.2-.2,.3-.5,.3-.8,0-.6-.5-1.1-1.2-1.1Z"/><path d="M30.4,66c-.4-.2-.8-.5-1.2-.7-.2-.1-.4-.2-.6-.2-.4,.1-.8,.3-1,.6-.2,.3-.2,.6-.1,.9,.1,.3,.3,.6,.5,.7,.4,.3,.9,.5,1.3,.8,.2,.1,.4,.1,.6,.1,.4,0,.8-.2,1-.6,.2-.3,.2-.6,.1-.9-.1-.3-.3-.5-.6-.7Z"/><path d="M37.2,68.7c-.5-.1-.9-.2-1.4-.4h-.3c-.5,0-1,.3-1.1,.8-.1,.3-.1,.6,.1,.9s.4,.5,.7,.6c.5,.1,1,.3,1.5,.4h.3c.5,0,1-.4,1.1-.9,.2-.6-.2-1.3-.9-1.4Z"/><path d="M72,47.3h-.3c-.4-.1-.8,.3-1,.8-.1,.5-.2,.9-.4,1.4-.2,.6,.2,1.3,.8,1.5h.3c.5,0,1-.3,1.1-.8s.3-1,.4-1.5c.2-.6-.2-1.3-.9-1.4Z"/><path d="M64.7,60.5c-.3-.1-.6,0-.9,.3l-1,1c-.5,.4-.5,1.2,0,1.7,.2,.2,.5,.4,.8,.4s.6-.1,.8-.3l1.1-1.1c.4-.5,.4-1.2,0-1.7-.2-.2-.5-.3-.8-.3Z"/><path d="M69.4,25.9c-.2-.3-.6-.6-1-.6-.2,0-.4,.1-.6,.2-.6,.3-.7,1.1-.4,1.6,.2,.4,.5,.8,.7,1.2,.2,.4,.6,.6,1,.6,.2,0,.4,0,.6-.1,.6-.3,.8-1,.5-1.6-.2-.4-.5-.9-.8-1.3Z"/><path d="M69.7,54.4c-.2-.1-.4-.1-.6-.1-.4,0-.8,.2-1,.6-.2,.4-.5,.8-.7,1.2-.2,.3-.2,.6-.1,.9,.1,.3,.3,.6,.5,.7,.2,.1,.4,.2,.6,.2,.4,0,.8-.2,1-.6,.3-.4,.5-.9,.8-1.3,.2-.3,.2-.6,.1-.9-.1-.3-.3-.5-.6-.7Z"/><path d="M72.6,39.7c-.3,0-.6,.1-.8,.4-.2,.2-.3,.5-.3,.8v1.5c0,.6,.5,1.2,1.1,1.2s1.2-.5,1.2-1.1v-1.5c0-.8-.5-1.3-1.2-1.3Z"/><path d="M43.7,33.2c-6.9,0-13.1,4.2-16.1,7.8-.3,.4-.3,.9,0,1.2,3,3.7,9.3,7.8,16.1,7.8s13.2-4.4,16.1-7.8c.3-.4,.3-.9,0-1.2-3-3.6-9.2-7.8-16.1-7.8Zm-6.7,13.5c-2.8-1.2-5.4-3-7.3-5.1,1.1-1.1,3.7-3.5,7.3-5.1-2.3,3-2.3,7.2,0,10.2Zm6.7,1.4c-3.6,0-6.5-2.9-6.5-6.5s2.9-6.5,6.5-6.5,6.5,2.9,6.5,6.5-2.9,6.5-6.5,6.5Zm6.7-1.4c2.3-3,2.3-7.2,0-10.2,2.8,1.2,5.4,3,7.3,5.1-1.1,1.1-3.7,3.5-7.3,5.1Z"/><path d="M43.7,38.4c-1.78,0-3.27,1.47-3.29,3.25,.03,1.78,1.51,3.25,3.29,3.25s3.27-1.47,3.29-3.25c-.03-1.78-1.51-3.25-3.29-3.25Zm1.3,3.3c0,.7-.6,1.3-1.3,1.3-.42,0-.78-.23-1.02-.55-.03-.04-.05-.08-.08-.12-.06-.09-.1-.19-.13-.3-.03-.08-.04-.17-.06-.26,0-.03-.02-.05-.02-.08,0-.01,0-.02,0-.03,0-.02,0-.05,0-.07,0-.7,.6-1.3,1.3-1.3s1.3,.6,1.3,1.3c0,.02,0,.03-.01,.05,0,.02,.01,.03,.01,.05Z"/></svg>
