<svg xmlns="http://www.w3.org/2000/svg" viewBox="0 0 32 32">
  <rect width="32" height="32" rx="4" fill="#1a1917"/>
  <g transform="scale(0.33) translate(3,3)" fill="#f5f2f0">
    <path d="M63.9,12.8c-.6,0-1.2,.5-1.2,1.2v4.4l-1-.7c-2.6-2-5.5-3.6-8.6-4.6-3.1-1.1-6.4-1.6-9.7-1.6-7.8,0-15.3,3.1-21,8.8-5.7,5.7-8.8,13.3-8.8,21.3s3.1,15.6,8.8,21.3c.2,.2,.5,.3,.8,.3s.6-.1,.8-.3c.5-.5,.5-1.2,0-1.7-5.3-5.3-8.1-12.2-8.1-19.7,0-15.3,12.5-27.8,27.8-27.8,5.8,0,11.3,1.7,16,5l1.5,1.1h-4.1c-.6,0-1.2,.5-1.2,1.2s.5,1.2,1.2,1.2h7.7l.3-.3v-7.9c0-.6-.5-1.2-1.2-1.2Z"/>
    <path d="M43.7,33.2c-6.9,0-13.1,4.2-16.1,7.8-.3,.4-.3,.9,0,1.2,3,3.7,9.3,7.8,16.1,7.8s13.2-4.4,16.1-7.8c.3-.4,.3-.9,0-1.2-3-3.6-9.2-7.8-16.1-7.8Zm-6.7,13.5c-2.8-1.2-5.4-3-7.3-5.1,1.1-1.1,3.7-3.5,7.3-5.1-2.3,3-2.3,7.2,0,10.2Zm6.7,1.4c-3.6,0-6.5-2.9-6.5-6.5s2.9-6.5,6.5-6.5,6.5,2.9,6.5,6.5-2.9,6.5-6.5,6.5Zm6.7-1.4c2.3-3,2.3-7.2,0-10.2,2.8,1.2,5.4,3,7.3,5.1-1.1,1.1-3.7,3.5-7.3,5.1Z"/>
  </g>
</svg>
